<?xml version="1.0" encoding="iso-8859-1"?>
<!-- Generator: Adobe Illustrator 19.0.0, SVG Export Plug-In . SVG Version: 6.00 Build 0)  -->
<svg version="1.1" id="Layer_1" xmlns="http://www.w3.org/2000/svg" xmlns:xlink="http://www.w3.org/1999/xlink" x="0px" y="0px"
	 viewBox="0 0 512.002 512.002" style="enable-background:new 0 0 512.002 512.002;" xml:space="preserve">
<circle style="fill:#FC6F58;" cx="256.001" cy="256" r="256"/>
<path style="fill:#F1543F;" d="M512.001,256c0-0.381-0.012-0.76-0.014-1.141L384.535,127.407l-12.781,19.665h-76.017l-17.549-18.156
	l-12.672,18.585l-77.74-0.431l-17.655-18.235l-16.889,17.194l-28.217,25.397l25.541,25.541v67.439l-25.541,12.393l25.541,25.541
	v54.758l-25.541,25.076l129.812,129.812c0.393,0.002,0.783,0.016,1.174,0.016C397.385,512,512.001,397.384,512.001,256z"/>
<path style="fill:#FFC61B;" d="M152.301,144.83c-0.09-0.09-0.167-0.167-0.219-0.219C152.127,144.655,152.203,144.73,152.301,144.83z
	"/>
<path style="fill:#324A5E;" d="M369.777,250.828h-2.586v-106.02h-106.02v-2.586h-10.343v2.586h-106.02v106.02h-2.584v10.343h2.584
	v106.02h106.02v2.586h10.343v-2.586h106.02v-106.02h2.586V250.828z M356.848,155.152v95.677h-95.677v-95.677H356.848z
	 M155.151,155.152h95.677v95.677h-95.677V155.152L155.151,155.152z M155.151,356.848v-95.677h95.677v95.677H155.151z
	 M356.848,356.848h-95.677v-95.677h95.677V356.848z"/>
<path style="fill:#2B3B4E;" d="M367.191,250.828v-106.02h-106.02v-2.586h-5.744v227.556h5.744v-2.586h106.02v-106.02h2.586v-10.343
	H367.191z M356.848,356.848h-95.677v-95.677h95.677V356.848z M356.848,250.828h-95.677v-95.677h95.677V250.828z"/>
<circle style="fill:#B5F1F4;" cx="148.033" cy="150.618" r="31.03"/>
<path style="fill:#02B2B2;" d="M256.001,119.596c-0.193,0-0.381,0.026-0.574,0.029v62.002c0.193,0.003,0.379,0.029,0.574,0.029
	c17.137,0,31.03-13.893,31.03-31.03S273.138,119.596,256.001,119.596z"/>
<path style="fill:#E9EFF4;" d="M224.971,150.626c0,16.944,13.586,30.692,30.456,31.001v-62.002
	C238.557,119.934,224.971,133.682,224.971,150.626z"/>
<circle style="fill:#B5F1F4;" cx="363.952" cy="150.618" r="31.03"/>
<g>
	<circle style="fill:#E9EFF4;" cx="148.033" cy="256" r="31.03"/>
	<path style="fill:#E9EFF4;" d="M224.971,256c0,16.944,13.586,30.692,30.456,31.001v-62.002
		C238.557,225.308,224.971,239.056,224.971,256z"/>
</g>
<path style="fill:#273B7A;" d="M256.001,224.97c-0.193,0-0.381,0.026-0.574,0.029v62.002c0.193,0.003,0.379,0.029,0.574,0.029
	c17.137,0,31.03-13.893,31.03-31.03S273.138,224.97,256.001,224.97z"/>
<circle style="fill:#CFDBE6;" cx="363.952" cy="256" r="31.03"/>
<g>
	<circle style="fill:#B5F1F4;" cx="148.033" cy="361.365" r="31.03"/>
	<circle style="fill:#B5F1F4;" cx="256.001" cy="361.365" r="31.03"/>
</g>
<g>
	<path style="fill:#CFDBE6;" d="M256.001,119.596c-0.193,0-0.381,0.026-0.574,0.029v62.002c0.193,0.003,0.379,0.029,0.574,0.029
		c17.137,0,31.03-13.893,31.03-31.03S273.138,119.596,256.001,119.596z"/>
	<path style="fill:#CFDBE6;" d="M256.001,224.97c-0.193,0-0.381,0.026-0.574,0.029v62.002c0.193,0.003,0.379,0.029,0.574,0.029
		c17.137,0,31.03-13.893,31.03-31.03S273.138,224.97,256.001,224.97z"/>
</g>
<path style="fill:#84DBFF;" d="M256.001,330.343c-0.193,0-0.381,0.026-0.574,0.029v62.002c0.193,0.003,0.379,0.029,0.574,0.029
	c17.137,0,31.03-13.893,31.03-31.03C287.031,344.236,273.138,330.343,256.001,330.343z"/>
<circle style="fill:#CFDBE6;" cx="363.952" cy="361.365" r="31.03"/>
<g>
</g>
<g>
</g>
<g>
</g>
<g>
</g>
<g>
</g>
<g>
</g>
<g>
</g>
<g>
</g>
<g>
</g>
<g>
</g>
<g>
</g>
<g>
</g>
<g>
</g>
<g>
</g>
<g>
</g>
</svg>
